<svg xmlns="http://www.w3.org/2000/svg" xmlns:xlink="http://www.w3.org/1999/xlink" width="86.83" height="82.054" viewBox="0 0 86.83 82.054">
  <defs>
    <clipPath id="clip-path">
      <rect id="Rectangle_429967" data-name="Rectangle 429967" width="70" height="70" transform="translate(405.051 1481.087)" fill="#fff" stroke="#707070" stroke-width="1"/>
    </clipPath>
  </defs>
  <g id="Group_1243961" data-name="Group 1243961" transform="translate(-388.221 -1469.033)">
    <g id="Group_1243786" data-name="Group 1243786" transform="translate(-418.73 -514.967)">
      <g id="Rectangle_429966" data-name="Rectangle 429966" transform="translate(806.951 1984)" fill="#7fe5cf" stroke="#589f8f" stroke-width="3">
        <rect width="70" height="70" rx="10" stroke="none"/>
        <rect x="1.5" y="1.5" width="67" height="67" rx="8.5" fill="none"/>
      </g>
    </g>
    <g id="Mask_Group_1099416" data-name="Mask Group 1099416" clip-path="url(#clip-path)">
      <g id="credits_8552973" transform="translate(405.219 1479.862)">
        <g id="Group_1247778" data-name="Group 1247778">
          <circle id="Ellipse_12339" data-name="Ellipse 12339" cx="10.885" cy="10.885" r="10.885" transform="translate(34.712 2.228)" fill="#fdcd56"/>
          <circle id="Ellipse_12340" data-name="Ellipse 12340" cx="8.205" cy="8.205" r="8.205" transform="translate(37.392 4.908)" fill="#f5b945"/>
        </g>
        <g id="Group_1247779" data-name="Group 1247779">
          <path id="Path_1330640" data-name="Path 1330640" d="M49.384,45.412a2.014,2.014,0,0,1,2.008,2.008V64.73a2.014,2.014,0,0,1-2.008,2.008H29.442a2.014,2.014,0,0,1-2.008-2.008V47.421a2.014,2.014,0,0,1,2.008-2.008H49.384Z" fill="#f4f6f8" fill-rule="evenodd"/>
          <path id="Path_1330641" data-name="Path 1330641" d="M27.434,49.862H51.392V47.421a2.014,2.014,0,0,0-2.008-2.008H29.442a2.014,2.014,0,0,0-2.008,2.008Z" fill="#f76c82" fill-rule="evenodd"/>
          <path id="Path_1330642" data-name="Path 1330642" d="M32.18,43.1H33.4a.682.682,0,0,1,.68.68V47a.682.682,0,0,1-.68.68H32.18A.682.682,0,0,1,31.5,47V43.782A.682.682,0,0,1,32.18,43.1Zm13.245,0h1.22a.682.682,0,0,1,.68.68V47a.682.682,0,0,1-.68.68h-1.22a.682.682,0,0,1-.68-.68V43.782A.682.682,0,0,1,45.425,43.1Zm-6.623,0h1.22a.682.682,0,0,1,.68.68V47a.682.682,0,0,1-.68.68H38.8a.682.682,0,0,1-.68-.68V43.782A.682.682,0,0,1,38.8,43.1Z" fill="#636c77" fill-rule="evenodd"/>
        </g>
        <g id="Group_1247781" data-name="Group 1247781">
          <g id="Group_1247780" data-name="Group 1247780">
            <path id="Path_1330643" data-name="Path 1330643" d="M19.583,18.377c-4.429,2.169-8.9,4.254-13.355,6.365l6.29,15.072,9.251-4.506a5.565,5.565,0,0,1,4.133-.355l9.815,2.842c3.11.9,6.961-.754,9.855-1.872l18.411-7.111c4.848-1.872,6.016-11.6-5.434-8.241L45.413,24.427a4.185,4.185,0,0,0-2.947-2.935l-8.9-2.377C27.5,14.82,24.416,16.01,19.583,18.377Z" fill="#efc7a4" fill-rule="evenodd"/>
            <path id="Path_1330644" data-name="Path 1330644" d="M45.423,26.6l-19.9-5.315A4.188,4.188,0,0,0,28.484,26.4l11.827,3.16A4.188,4.188,0,0,0,45.423,26.6Z" fill="#d5a889" fill-rule="evenodd"/>
          </g>
          <path id="Path_1330645" data-name="Path 1330645" d="M17.674,41.926l-4.718,1.959A2.017,2.017,0,0,1,10.325,42.8L2.337,23.617a2,2,0,0,1,1.087-2.634l4.718-1.959a2.017,2.017,0,0,1,2.631,1.086L18.76,39.292a2,2,0,0,1-1.087,2.633Z" fill="#e4e8eb" fill-rule="evenodd"/>
        </g>
        <circle id="Ellipse_12341" data-name="Ellipse 12341" cx="9.068" cy="9.068" r="9.068" transform="translate(14.646 58.401) rotate(-45)" fill="#f4f6f8"/>
        <path id="Path_1330646" data-name="Path 1330646" d="M23.121,52.669a.953.953,0,1,0-1.348,1.347l.324.322a.952.952,0,1,0,1.347-1.347ZM22.1,62.311l-.324.322a.952.952,0,0,0,1.347,1.347l.324-.322A.952.952,0,1,0,22.1,62.311Zm-.3-3.987a.953.953,0,0,0-.953-.952h-.457a.953.953,0,0,0,0,1.905h.457A.952.952,0,0,0,21.793,58.325Zm10.3-3.708a.95.95,0,0,0,.675-.279l.323-.322a.953.953,0,0,0-1.347-1.347l-.324.322a.952.952,0,0,0,.673,1.626Zm-4.659-1.929a.953.953,0,0,0,.952-.952v-.457a.953.953,0,0,0-1.905,0v.457A.952.952,0,0,0,27.431,52.688Zm5.656,9.946-.322-.322a.953.953,0,0,0-1.349,1.347l.324.322a.952.952,0,0,0,1.347-1.347Zm-5.656,1.329a.952.952,0,0,0-.952.952v.456a.952.952,0,1,0,1.9,0v-.456A.953.953,0,0,0,27.431,63.963Zm5.637-5.638a.952.952,0,0,0,.952.952h.457a.952.952,0,0,0,0-1.9h-.457A.953.953,0,0,0,33.068,58.325ZM66.381,22.835c-.664-1.959-3.49-2.418-7.561-1.223L46.5,25.226a5.138,5.138,0,0,1-6.44,5.368L28.236,27.425a.952.952,0,1,1,.494-1.84l11.824,3.169a3.224,3.224,0,0,0,1.668-6.228l-8.9-2.384A.947.947,0,0,1,33.019,20c-5.608-3.977-8.319-2.965-13.013-.668-2.445,1.195-4.866,2.347-7.151,3.426L18.368,36l2.976-1.446a6.538,6.538,0,0,1,4.815-.41l9.813,2.849c2.589.751,5.949-.555,8.647-1.605l.6-.234,18.417-7.1c2.013-.777,3.372-3.362,2.744-5.219Zm-48.5,16.941a1.05,1.05,0,0,1-.571,1.386l-4.719,1.959a1.062,1.062,0,0,1-1.386-.571L3.213,23.369a1.052,1.052,0,0,1,.573-1.388L8.5,20.022a1.047,1.047,0,0,1,.405-.082,1.063,1.063,0,0,1,.982.653ZM37.961,19.413a9.932,9.932,0,1,1,7.811,3.576,5.2,5.2,0,0,0-.58-.781c.133.007.267.011.4.011A9.17,9.17,0,1,0,39.4,19.8Zm7.633.9a7.253,7.253,0,1,1,7.252-7.252,7.26,7.26,0,0,1-7.252,7.252Zm18.726,9.518-18.414,7.1-.6.23c-2.3.9-5.034,1.959-7.643,1.959a7.959,7.959,0,0,1-2.226-.3L25.629,35.97a4.629,4.629,0,0,0-3.452.294l-3.074,1.5.535,1.284a2.957,2.957,0,0,1-1.6,3.879l-4.717,1.959a2.964,2.964,0,0,1-3.876-1.6L1.456,24.1a2.957,2.957,0,0,1,1.6-3.879l4.718-1.959a2.971,2.971,0,0,1,3.876,1.6L12.122,21c2.256-1.065,4.642-2.2,7.048-3.377,5.022-2.456,8.437-3.739,14.81.727l1.187.318a11.841,11.841,0,1,1,19.281,2.244l3.834-1.125a12.387,12.387,0,0,1,6.671-.46,4.547,4.547,0,0,1,3.231,2.9c.96,2.833-.882,6.459-3.864,7.607Zm-33.939,29.1-1.923-1.11a1.465,1.465,0,0,0-.075-.132V54.35a.953.953,0,0,0-1.905,0v3.336a1.135,1.135,0,0,0-.2.638,1.15,1.15,0,0,0,1.147,1.148c.026,0,.052,0,.076,0l1.923,1.109a.939.939,0,0,0,.474.128.952.952,0,0,0,.478-1.777Zm20.056,5.923a1.057,1.057,0,0,1-1.056,1.056H34.113a10.091,10.091,0,0,0,.212-14.971H50.437ZM27.431,66.535a8.209,8.209,0,1,1,8.209-8.21A8.22,8.22,0,0,1,27.431,66.535Zm.953-18.993v.716a10.032,10.032,0,0,1,3.033.774H50.437v-1.49a1.058,1.058,0,0,0-1.056-1.056H48.275V47.8a.952.952,0,0,1-.953.952H44.742a.953.953,0,0,1-.953-.952V46.486H41.653V47.8a.952.952,0,0,1-.953.952H38.119a.953.953,0,0,1-.953-.952V46.486H35.031V47.8a.953.953,0,0,1-.953.952H31.5a.952.952,0,0,1-.953-.952V46.486h-1.1a1.057,1.057,0,0,0-1.056,1.056Zm4.065-.694h.676V44.176h-.676Zm6.622,0h.676V44.176h-.676Zm6.622,0h.677V44.176h-.677Zm6.648.694v17.31a2.965,2.965,0,0,1-2.961,2.961H30.933a10.113,10.113,0,1,1-4.455-19.555v-.716a2.964,2.964,0,0,1,2.96-2.961h1.105V43.223a.952.952,0,0,1,.952-.952h2.581a.953.953,0,0,1,.952.952v1.358h2.136V43.223a.953.953,0,0,1,.952-.952H40.7a.952.952,0,0,1,.952.952v1.358h2.136V43.223a.953.953,0,0,1,.952-.952h2.581a.952.952,0,0,1,.952.952v1.358h1.106a2.966,2.966,0,0,1,2.961,2.961ZM45.62,19.132a.954.954,0,0,1-.953-.929l-.008-.336a3.754,3.754,0,0,1-1.565-.982A.953.953,0,1,1,44.4,15.5c.506.478.728.588,1.192.588a1.155,1.155,0,0,0,1.253-1.018,1.155,1.155,0,0,0-1.253-1.018,3.05,3.05,0,0,1-3.158-2.923,2.96,2.96,0,0,1,2.189-2.781l-.009-.38a.953.953,0,0,1,.929-.976h.023a.952.952,0,0,1,.951.931l.011.442a3.383,3.383,0,0,1,1.816,1.181.953.953,0,1,1-1.592,1.046,2.2,2.2,0,0,0-1.161-.48,1.155,1.155,0,0,0-1.253,1.016,1.155,1.155,0,0,0,1.253,1.018,3.051,3.051,0,0,1,3.158,2.923,2.96,2.96,0,0,1-2.188,2.781l.009.308a.954.954,0,0,1-.93.976H45.62Z" fill-rule="evenodd"/>
      </g>
    </g>
  </g>
</svg>
