<svg xmlns="http://www.w3.org/2000/svg" xmlns:xlink="http://www.w3.org/1999/xlink" width="86.83" height="82.054" viewBox="0 0 86.83 82.054">
  <defs>
    <clipPath id="clip-path">
      <rect id="Rectangle_429967" data-name="Rectangle 429967" width="70" height="70" transform="translate(405.051 1481.087)" fill="#fff" stroke="#707070" stroke-width="1"/>
    </clipPath>
  </defs>
  <g id="Group_1243967" data-name="Group 1243967" transform="translate(-388.221 -1469.033)">
    <g id="Group_1243786" data-name="Group 1243786" transform="translate(-418.73 -514.967)">
      <g id="Rectangle_429966" data-name="Rectangle 429966" transform="translate(806.951 1984)" fill="#7fe5cf" stroke="#589f8f" stroke-width="3">
        <rect width="70" height="70" rx="10" stroke="none"/>
        <rect x="1.5" y="1.5" width="67" height="67" rx="8.5" fill="none"/>
      </g>
    </g>
    <g id="Mask_Group_1099417" data-name="Mask Group 1099417" clip-path="url(#clip-path)">
      <g id="offer_12208019" transform="translate(403.922 1479.958)">
        <g id="Group_1247786" data-name="Group 1247786">
          <g id="Group_1247782" data-name="Group 1247782">
            <path id="Path_1330647" data-name="Path 1330647" d="M15.192,32.018l5.847-3.388a4.139,4.139,0,0,1,3.419-.7,41.115,41.115,0,0,0,5.78,1.777,1.624,1.624,0,0,1,1.123,1.946,1.572,1.572,0,0,1-1.946,1.124l.783.125a3.646,3.646,0,0,0,2.506-.437L38.328,29.2c4.37-2.545,5.012,1.37,3.559,2.265l-10.2,6.282a3.742,3.742,0,0,1-3.029.427l-7.4-1.983-2.74,1.582a1.107,1.107,0,0,1-1.509-.4l-2.216-3.838a1.107,1.107,0,0,1,.4-1.508Z" fill="#f6dccd" fill-rule="evenodd"/>
            <path id="Path_1330648" data-name="Path 1330648" d="M15.192,32.018l5.847-3.388a4.139,4.139,0,0,1,3.419-.7c.719.233,1.683.61,2.766.971L15.9,35.446l-1.108-1.92a1.107,1.107,0,0,1,.4-1.508Z" fill="#f1cbbc" fill-rule="evenodd"/>
            <path id="Path_1330649" data-name="Path 1330649" d="M15.775,30.173l4.637,8.194A.83.83,0,0,1,20.1,39.5l-1.577.893a.83.83,0,0,1-1.128-.313l-4.637-8.194a.83.83,0,0,1,.313-1.128l1.577-.893a.83.83,0,0,1,1.128.312Z" fill="#d1d1d6" fill-rule="evenodd"/>
            <path id="Path_1330650" data-name="Path 1330650" d="M18.214,35.8l.821,1.45.812,1.434a.83.83,0,0,1-.31,1.127L20.1,39.5a.83.83,0,0,0,.313-1.128L19.6,36.928l-1.635-2.889-1.637-2.893-.551-.973a.831.831,0,0,0-.964-.383l.953,1.684L17.4,34.364l.814,1.439Z" fill="#b1b1b5" fill-rule="evenodd"/>
          </g>
          <g id="Group_1247783" data-name="Group 1247783">
            <path id="Path_1330651" data-name="Path 1330651" d="M4.889,2.258H6.543A2.571,2.571,0,0,1,9.109,4.824V60.648a2.571,2.571,0,0,0,2.566,2.566h55.7a2.571,2.571,0,0,1,2.566,2.566v1.654A2.571,2.571,0,0,1,67.378,70H4.889a2.571,2.571,0,0,1-2.566-2.566V4.824A2.571,2.571,0,0,1,4.889,2.258Z" fill="#a79ba7" fill-rule="evenodd"/>
            <path id="Path_1330652" data-name="Path 1330652" d="M4.889,2.258H6.543A2.571,2.571,0,0,1,9.109,4.824V60.648a2.571,2.571,0,0,0,2.566,2.566h55.7a2.571,2.571,0,0,1,2.566,2.566v1.654a2.573,2.573,0,0,1-1.6,2.377,2.549,2.549,0,0,0,.189-.965V67.191a2.571,2.571,0,0,0-2.566-2.566h-55.7A2.571,2.571,0,0,1,7.7,62.059V6.236A2.571,2.571,0,0,0,5.132,3.67H3.478a2.545,2.545,0,0,0-.965.189,2.572,2.572,0,0,1,2.377-1.6Z" fill="#837683" fill-rule="evenodd"/>
          </g>
          <g id="Group_1247784" data-name="Group 1247784">
            <path id="Path_1330653" data-name="Path 1330653" d="M39.046,6.311,36.489,7.787,33.932,9.264A.423.423,0,0,1,33.3,8.9V2.992a.423.423,0,0,1,.635-.367L36.489,4.1l2.557,1.476a.423.423,0,0,1,0,.733Z" fill="#ffe177" fill-rule="evenodd"/>
          </g>
          <g id="Group_1247785" data-name="Group 1247785">
            <circle id="Ellipse_12342" data-name="Ellipse 12342" cx="6.651" cy="6.651" r="6.651" transform="translate(23.885 20.104) rotate(-45)" fill="#ffc338"/>
            <path id="Path_1330654" data-name="Path 1330654" d="M33.3,13.45a6.652,6.652,0,1,1,0,13.3c-.192,0-.382-.009-.569-.025a6.652,6.652,0,0,0,0-13.255c.188-.016.378-.025.569-.025Z" fill="#f5b829" fill-rule="evenodd"/>
          </g>
        </g>
        <path id="Path_1330655" data-name="Path 1330655" d="M34.263,21.942c.027-.024.046-.048.033-.147s-.053-.419-1.176-.6c-2.4-.394-2.83-1.8-2.87-2.6a2.707,2.707,0,0,1,1.913-2.7v0a1.129,1.129,0,0,1,2.259-.01A3.126,3.126,0,0,1,36.3,17.644a1.131,1.131,0,0,1-2.086.874.991.991,0,0,0-1.169-.525c-.126.028-.545.149-.531.49.013.282.618.423.976.482,2.312.381,2.936,1.6,3.049,2.56a2.4,2.4,0,0,1-.558,1.9,3.2,3.2,0,0,1-1.554.93,1.13,1.13,0,0,1-2.259-.021,3.032,3.032,0,0,1-2.1-2.165,1.13,1.13,0,0,1,2.192-.546c.12.477.671.638,1.1.624a1.374,1.374,0,0,0,.91-.3Zm-.97-7.363A5.523,5.523,0,1,0,38.82,20.1a5.529,5.529,0,0,0-5.527-5.524Zm1.129-6.9V4.214l3,1.73ZM33.293,27.883A7.78,7.78,0,0,0,34.422,12.4V10.282l5.819-3.36a1.129,1.129,0,0,0,0-1.956L33.857,1.28s-.007,0-.007,0c-.027-.013-.047-.025-.066-.035a.335.335,0,0,0-.04-.016.444.444,0,0,0-.06-.025c-.013-.006-.033-.011-.046-.016a.425.425,0,0,0-.053-.015.519.519,0,0,0-.053-.014l-.046-.007-.066-.011-.04,0-.073,0h-.04c-.027,0-.046,0-.073,0l-.046.005c-.02,0-.04,0-.06.009a.333.333,0,0,0-.053.013.518.518,0,0,0-.053.011c-.02.005-.04.012-.06.019l-.04.015a.41.41,0,0,0-.053.025.19.19,0,0,0-.046.023l-.053.025c-.013.01-.033.02-.047.031s-.027.017-.04.027a.523.523,0,0,0-.053.039.228.228,0,0,1-.033.028c-.013.014-.033.028-.046.044s-.02.021-.033.033-.027.029-.04.045-.02.028-.033.044-.02.027-.033.041l-.04.058a.045.045,0,0,1-.013.025s-.007.007-.007.011c-.013.022-.02.044-.033.067a.072.072,0,0,0-.013.034.25.25,0,0,0-.027.065l-.02.041a.187.187,0,0,1-.013.056c-.007.017-.007.035-.013.053a.109.109,0,0,0-.007.045c-.007.023-.007.045-.013.068v.04c0,.024-.007.048-.007.073V12.4a7.781,7.781,0,0,0,1.129,15.479ZM14.939,30.989l3.773,6.665.565,1-1.05.6-4.344-7.67Zm6.663-1.38-3.654,2.114,2.165,3.82.571-.332a1.122,1.122,0,0,1,.857-.112l7.4,1.982a2.6,2.6,0,0,0,2.146-.3l10.2-6.281a.745.745,0,0,0,.08-.806c-.206-.344-1.076-.341-2.478.478l-5.626,3.276a4.79,4.79,0,0,1-3.248.575l-.7-.114-.02-.006-.02,0c-.9-.184-1.721-.418-2.591-.666-.392-.112-.79-.226-1.2-.335a1.129,1.129,0,0,1,.585-2.182c.418.114.83.231,1.229.344.81.232,1.581.45,2.378.616.492.049.551-.167.591-.312a.492.492,0,0,0-.332-.559,30.016,30.016,0,0,1-4.663-1.386c-.452-.162-.837-.3-1.169-.411a3.02,3.02,0,0,0-2.5.6ZM16.407,40.63,11.77,32.436a1.961,1.961,0,0,1,.737-2.668l1.581-.893a1.962,1.962,0,0,1,2.67.739l.08.143,3.634-2.1a5.192,5.192,0,0,1,4.331-.792c.365.118.79.272,1.242.434a27.279,27.279,0,0,0,4.391,1.3,1.5,1.5,0,0,1,.146.038,2.8,2.8,0,0,1,1.96,2.621l5.215-3.039c3.78-2.2,5.288-.126,5.547.313a2.91,2.91,0,0,1-.83,3.888l-10.2,6.283a4.84,4.84,0,0,1-2.564.738,5.179,5.179,0,0,1-1.348-.182L21.409,37.4l-.186.107.173.3a1.958,1.958,0,0,1-.744,2.668l-1.574.893a1.941,1.941,0,0,1-.957.254,1.992,1.992,0,0,1-.531-.072,1.957,1.957,0,0,1-1.182-.921Zm52.405,26.8V65.78a1.438,1.438,0,0,0-1.435-1.438H11.67a3.7,3.7,0,0,1-3.693-3.695V4.824A1.438,1.438,0,0,0,6.542,3.387H4.888A1.44,1.44,0,0,0,3.447,4.824v62.61a1.44,1.44,0,0,0,1.441,1.437H67.377A1.438,1.438,0,0,0,68.812,67.434Zm-1.435-5.35H11.67a1.444,1.444,0,0,1-.339-.042l7.36-7.938,3.846,3.031a1.125,1.125,0,0,0,.837.234,1.14,1.14,0,0,0,.757-.433L36.089,41.387l8,7.619a1.124,1.124,0,0,0,1.754-.26l11.213-19.7v1.38a1.129,1.129,0,0,0,2.259,0V24.778a1.129,1.129,0,0,0-1.694-.978l-4.9,2.824a1.129,1.129,0,0,0,1.129,1.956l1.289-.745L44.6,46.375,36.74,38.887a1.132,1.132,0,0,0-1.674.128L23.036,54.654,19.27,51.684a1.13,1.13,0,0,0-1.528.12l-7.506,8.1V4.824A3.7,3.7,0,0,0,6.542,1.129H4.888a3.7,3.7,0,0,0-3.7,3.695v62.61a3.7,3.7,0,0,0,3.7,3.695H67.377a3.7,3.7,0,0,0,3.693-3.695V65.78a3.7,3.7,0,0,0-3.693-3.7Z" fill="#242222" fill-rule="evenodd"/>
      </g>
    </g>
  </g>
</svg>
